<svg width="365" height="388" viewBox="0 0 365 388" fill="none" xmlns="http://www.w3.org/2000/svg">
<g clip-path="url(#clip0_242_85)">
<path d="M146.416 198.903H151.88V191.097H146.416" stroke="#1F27C0"/>
<path d="M144.202 119.291V173.032M144.202 173.032H146.415M144.202 173.032H143.389M143.389 173.032H129.118M143.389 173.032V191.161H146.415M129.118 191.161H139.731M129.118 198.903H146.415" stroke="#1F27C0"/>
<path d="M124.828 119.29V101.161H140.77M151.338 91.8711V101.161H147.274M110.241 102.387L113.583 105.161M128.983 119.29H146.145" stroke="#1F27C0"/>
<path d="M116.112 97.4194L121.351 99.871" stroke="#1F27C0"/>
<path d="M110.557 92.7095L116.066 97.4191L110.557 114.322" stroke="#1F27C0"/>
<path d="M98.5889 103.29L107.486 89.2256M107.847 107.742L111.596 99.2256" stroke="#1F27C0"/>
<path d="M92.4468 93.5482L102.518 81.6772L105.228 86.0643" stroke="#1F27C0"/>
<path d="M83.4595 68.7098L96.2855 63.4194L99.9888 75.613" stroke="#1F27C0"/>
<path d="M81.2017 54.8386L94.4342 52.0645L95.2471 58.129" stroke="#1F27C0"/>
<path d="M5.96143 90.9033V96.3872" stroke="#1F27C0"/>
<path d="M10.5677 95.8063V107.419H0.451396M0.225586 99.9998H8.17411M94.1176 41.6772V47.8063" stroke="#1F27C0"/>
<path d="M10.4325 90.8389H0.270996" stroke="#1F27C0"/>
<path d="M10.5677 61.6772V65.3547H0.315918M0.315918 73.8708H10.5677V69.2901" stroke="#1F27C0"/>
<path d="M0.315918 42.8389H11.2M10.658 49.7421V57.1614H0.315918" stroke="#1F27C0"/>
<path d="M31.9748 17.6776L22.2198 17.097L22.6262 1.41958M19.781 16.9034L11.0647 16.3228M11.0647 16.3228V0.774414M11.0647 16.3228V24.4518M16.71 0.774414L16.439 11.4196L18.2004 11.5413M18.2004 11.5413L20.3681 11.6776M18.2004 11.5413L18.11 14.5809M0.361328 30.0647H11.0647V36.4518" stroke="#1F27C0"/>
<path d="M29.852 1.80664L29.4907 12.3873L31.8392 12.5163" stroke="#1F27C0"/>
<path d="M40.2393 18.0645L42.2716 18.258" stroke="#1F27C0"/>
<path d="M34.594 2.06445L34.1875 17.8064L37.123 18.0645" stroke="#1F27C0"/>
<path d="M40.1943 18.258L40.646 2.51611" stroke="#1F27C0"/>
<path d="M46.3816 2.83887L46.0654 12.7744" stroke="#1F27C0"/>
<path d="M61.5562 19.5483L66.8401 19.8709" stroke="#1F27C0"/>
<path d="M58.6202 3.67725L58.0783 19.1611L45.9297 18.4514" stroke="#1F27C0"/>
<path d="M63.6787 19.4837L64.2207 4.12891" stroke="#1F27C0"/>
<path d="M70.4531 4.45166L70.0918 19.742" stroke="#1F27C0"/>
<path d="M75.782 4.64502L75.4658 14.8386" stroke="#1F27C0"/>
<path d="M81.969 5.29053L81.4722 20.5808" stroke="#1F27C0"/>
<path d="M91.2273 21.355L73.9302 20.3228" stroke="#1F27C0"/>
<path d="M94.75 21.4841L95.2016 6.2583" stroke="#1F27C0"/>
<path d="M99.0854 21.9355L105.092 22.3226" stroke="#1F27C0"/>
<path d="M15.626 96.0645V107.419M15.626 107.419H26.6907M15.626 107.419H10.4775" stroke="#1F27C0"/>
<path d="M15.7617 90.9678H26.6909" stroke="#1F27C0"/>
<path d="M19.8711 82.7095V87.0321" stroke="#1F27C0"/>
<path d="M15.7617 73.5483H26.6006" stroke="#1F27C0"/>
<path d="M15.7163 70.7095V86.1933" stroke="#1F27C0"/>
<path d="M15.7617 65.4839H26.6006" stroke="#1F27C0"/>
<path d="M26.781 55.5483H15.5356V61.0322" stroke="#1F27C0"/>
<path d="M28.3166 23.6772L28.0005 32.8385" stroke="#1F27C0"/>
<path d="M22.0842 23.2905L21.5874 36.9679" stroke="#1F27C0"/>
<path d="M15.4907 22.5161V36.7742L27.4587 37.5484" stroke="#1F27C0"/>
<path d="M40.0585 24.5161L39.5166 38.1935" stroke="#1F27C0"/>
<path d="M33.3296 37.8065L33.4651 33.9355" stroke="#1F27C0"/>
<path d="M18.4263 23.0322L33.8265 24.0645L33.6911 27.0322" stroke="#1F27C0"/>
<path d="M33.4653 30.4517L39.788 30.8388" stroke="#1F27C0"/>
<path d="M75.3757 26.8385L74.9692 40.3224M69.7304 26.1934L69.2788 39.9998" stroke="#1F27C0"/>
<path d="M51.6655 25.2905L51.3042 38.8389" stroke="#1F27C0"/>
<path d="M37.8457 24.2583L45.7039 24.8389L45.3426 33.226" stroke="#1F27C0"/>
<path d="M56.543 25.4194L69.7303 26.3227" stroke="#1F27C0"/>
<path d="M78.8979 26.8389L86.982 27.2905L86.6658 40.9679" stroke="#1F27C0"/>
<path d="M80.7949 40.9679L94.1629 41.8066L94.6145 28.1292L90.008 27.8711" stroke="#1F27C0"/>
<path d="M80.8853 40.7742L26.6457 37.3549V177.806H0.270996V12.7742L10.6131 0.45166L105.183 6.64521V42.1936L100.711 41.8065" stroke="#1F27C0"/>
<path d="M19.0586 82.5806H26.6007" stroke="#1F27C0"/>
<path d="M100.847 41.7417V46.3869C100.967 49.9137 101.118 51.9352 101.886 57.8062C102.645 61.0578 103.888 65.5266 104.415 67.3546C105.138 69.4191 107.052 74.4385 108.931 77.9998C111.28 82.4514 113.764 85.2256 114.938 86.3869C116.112 87.5481 121.531 91.0965 122.615 91.0965C125.433 91.6643 128.728 91.8062 130.022 91.8062H151.338V88.3869L217.636 92.4514V94.1288" stroke="#1F27C0"/>
<path d="M80.7048 40.7742C80.78 46.1506 80.8854 54.1935 82.2403 61.5484C83.3242 67.2903 83.0081 67.2258 84.5887 72.8387C86.1694 78.4516 86.3501 79.5484 88.2469 84.129C90.1437 88.7097 89.6017 88.0645 93.1695 94.9032C96.7373 101.742 101.525 106.774 101.66 106.968C106.854 112.452 110.196 114.28 111.099 114.968C112.725 115.935 116.311 117.935 117.647 118.194C119.318 118.516 119.047 118.968 123.247 119.355C125.921 119.355 128.215 119.355 129.028 119.355V274H4.47119V387.226H36.2653V302.774H151.925V275.742H169.674V290.387H197.584V275.742H215.875V304.129H331.535V387.613H363.69V274.323H362.019V244.387H364.774V237.419H363.194V194.71H364.503V187.613H330.722V194.71H332.212V237.419H330.451V244.387H333.477V275.935H296.851V241.935H300.057V224.065H282.218V274H274.811V223.097H255.798V274H236.695V266.129H238.004V237.806H236.695V219.806H238.004V125.226H243.604C245.411 124.753 248.753 123.441 249.746 122.968C251.011 122.366 253.901 120.774 255.256 120C256.385 119.355 257.153 118.968 258.192 118.387C259.095 117.882 260.134 117.097 260.811 116.516C261.498 116 262.618 115.226 263.024 114.839C263.702 114.258 265.282 112.774 265.96 112.064C267.622 110.206 268.85 108.882 269.256 108.452L274.811 101.613C276.943 98.0516 278.108 96.3835 278.695 95.2258C279.764 93.1183 282.092 88.4258 282.85 86.5161C283.799 84.4516 286.373 77.3548 286.689 76.0645C286.942 75.0322 287.788 70.9893 288.179 69.0967L289.534 60.5161L289.986 54.4516L335.735 56.9032L336.819 152H334.651V163.419H335.69V177.226H361.613V162.71H362.426L361.613 82.7097V35.6129L352.626 22.6451L271.831 17.4193L266.637 17.0322L265.282 52.6451L270.386 53.1613C270.34 54.3441 270.34 54.7484 269.979 56.9677C269.527 59.7419 268.805 64.4516 268.353 65.1613C267.586 68.3226 267.36 68.3226 265.869 72.5161C264.379 76.7097 264.289 76.6451 263.16 78.6451C262.031 80.6451 259.808 83.7419 258.869 84.8387C258.074 85.7677 256.491 87.6344 255.798 88.4516C254.654 89.3548 252.072 91.1254 251.101 91.7419C249.882 92.5161 248.888 93.1613 247.624 93.9355C245.637 94.7742 244.327 95.0322 243.424 95.2258C241.572 95.8709 240.217 96 239.675 96H217.636V93.6774" stroke="#1F27C0"/>
<path d="M152.106 120.452L216.146 124.645V232.968H197.991V224.258H196.681" stroke="#1F27C0"/>
<path d="M170.577 224.129H169.358V233.29H151.925V120.452" stroke="#1F27C0"/>
<path d="M170.758 224.459C170.78 219.436 172.162 214.634 174.6 211.102C177.038 207.569 180.332 205.597 183.761 205.613C187.19 205.63 190.475 207.632 192.897 211.187C195.32 214.742 196.681 219.559 196.681 224.581" stroke="#1F27C0"/>
<path d="M10.6133 73.8711V85.6775" stroke="#1F27C0"/>
<path d="M15.2646 387.226V380.709" stroke="#1F27C0"/>
<path d="M4.51611 372.129H15.1744V376.129" stroke="#1F27C0"/>
<path d="M15.4004 372.129H18.1553V365.355" stroke="#1F27C0"/>
<path d="M4.60645 345.419H18.2002V359.613" stroke="#1F27C0"/>
<path d="M18.2002 345.419V339.613" stroke="#1F27C0"/>
<path d="M4.47119 333.936H18.2456V335.032" stroke="#1F27C0"/>
<path d="M22.9424 365.032V372.258H36.22V359.419L22.9424 359.097V360.452" stroke="#1F27C0"/>
<path d="M36.3555 346.581H23.0327V339.936" stroke="#1F27C0"/>
<path d="M36.3101 333.936H22.9873V328.839V335.42" stroke="#1F27C0"/>
<path d="M36.3101 320.451H22.897V313.742" stroke="#1F27C0"/>
<path d="M36.2198 308H22.9873V301.161" stroke="#1F27C0"/>
<path d="M36.265 295.677H23.168V284.193H36.265M36.265 295.677V302.452M36.265 295.677V284.193M36.265 284.193V282.581H40.6909" stroke="#1F27C0"/>
<path d="M43.3555 282.58H49.362M49.362 282.58V302.774H58.259M49.362 282.58H52.8395M58.259 302.774V282.58H54.917H58.3493M58.259 302.774L58.3493 282.58M58.259 302.774H84.7239V282.58M58.3493 282.58H61.7816M84.7239 282.58H83.6852H88.1111H84.7239ZM67.1107 302.774V282.58M67.1107 282.58H81.4271H63.7236H67.1107ZM90.2337 282.58H93.1241M93.1241 282.58V302.774M93.1241 282.58H101.344M93.1241 302.774H110.963M93.1241 302.774H130.202M110.963 302.774V282.58M110.963 302.774H130.202M110.963 302.774H144.699V282.193H146.867M130.202 302.774V282.58H127.131M110.963 282.58H103.421M110.963 282.58H125.234" stroke="#1F27C0"/>
<path d="M4.51635 321.032H18.2005M4.51635 321.032V308H18.2005V308.71M4.51635 321.032V295.355M18.2005 321.032V328.71M18.2005 321.032V313.355M4.51635 295.355H18.2005M4.51635 295.355L4.47119 283.677H18.2005V289.613M18.2005 295.355V303.419M18.2005 295.355V293.806" stroke="#1F27C0"/>
<path d="M129.073 264.064C129.166 264.064 131.194 264.064 133.906 264.064M133.906 264.064C135.129 264.064 136.492 264.064 137.88 264.064M133.906 264.064H137.88M133.906 264.064V258.193M145.467 264.064V254.968H140.228L139.415 253.032L141.312 250.968M145.467 264.064C143.428 264.064 140.608 264.064 137.88 264.064M145.467 264.064H137.88M145.467 264.064V246.193M137.88 264.064V261.742M137.88 261.742V258.193L138.964 256.903M137.88 261.742H135.938V258.193" stroke="#1F27C0"/>
<path d="M145.512 242.839V218.581H147.5H129.028V198.968H151.88V218.581H149.803" stroke="#1F27C0"/>
<path d="M345.354 371.355V373.484H331.535V361.161H345.354M345.354 361.161V368.258V358.194V361.161ZM331.535 354.645H345.354V347.807M345.354 347.807V346.194M345.354 347.807H331.535V341.29H345.354V342.581V335.29M345.354 335.29V334.581M345.354 335.29H340.116M340.116 335.29H331.535V329.807H340.116M340.116 335.29V329.807M345.354 331.484V329.807H340.116M331.535 322.387H345.354V324.903V316.839M345.354 316.839V315.29M345.354 316.839H342.328M342.328 316.839H331.535V310M342.328 316.839V310M331.535 310H342.328M331.535 310H345.354M331.535 310V304.129M342.328 310H345.354M345.354 310V311.613M345.354 310V303.742M331.535 304.129V281.355H326.025M331.535 304.129H322.683M322.683 304.129V281.355H323.767H322.66M322.683 304.129L322.66 281.355M322.66 281.355H321.554M314.012 304.129V281.355M314.012 281.355H319.567H312.612H314.012ZM304.618 304.129V281.355M304.618 281.355H310.489H303.625H304.618ZM290.166 281.355H295.857M295.857 281.355H301.547H295.812V304.129L295.857 281.355ZM287.231 304.129V281.355M287.231 281.355H288.089H281.811H287.231ZM273.953 304.129V281.355M273.953 281.355H279.689H272.734H273.953ZM265.734 281.355V304.129H256.069V281.355M265.734 281.355H270.611H263.792H265.734ZM256.069 281.355H261.759H252.501H256.069ZM245.591 304.129V281.355M245.591 281.355H250.288H243.107H245.591ZM240.804 281.355H236.785V285.613M236.785 285.613V304.129H228.972V285.613M236.785 285.613H233.714M228.972 285.613H231.591H227.391H228.972ZM222.649 304.129V285.613H225.404" stroke="#1F27C0"/>
<path d="M352.4 382V387.613H363.645V372.968M363.645 372.968V367.032H354.658M363.645 372.968H354.658M354.658 367.032V363.677M354.658 367.032V372.968M354.658 372.968H349.916V371.419M354.658 363.677V359.742H363.645M354.658 363.677H349.916M363.645 359.742L349.916 359.548M363.645 359.742V347.484H349.916M363.645 359.742V322.258H349.916M349.916 359.548V363.677M349.916 359.548V354.774M349.916 347.484V351.032V344.581V347.484ZM349.916 322.258V330.839M349.916 322.258V314.452V330.839M349.916 363.677V367.806M349.916 330.839C349.916 334.236 349.916 341.084 349.916 341.29M349.916 303.419C349.916 305.72 349.916 310.361 349.916 310.516H363.645M363.645 296.581H349.916M349.916 296.581V299.484V293.097V296.581ZM349.916 284.839H363.645V274.387H362.019M349.916 284.839V289.419V282.516V284.839ZM362.019 274.387H349.735V272.452M362.019 274.387V268.193H349.735M349.735 268.193V270.387V265.032V268.193ZM349.735 262.839C349.735 262.735 349.735 260.99 349.735 260.129M349.735 260.129H362.019V248.581H349.735V250.193M349.735 260.129V252.516" stroke="#1F27C0"/>
<path d="M345.535 268.968V274.451H333.477V266.322M333.477 266.322H345.535M333.477 266.322V251.161H345.716M345.535 266.322V267.097V253.806V266.322Z" stroke="#1F27C0"/>
<path d="M255.978 274H263.837M263.837 274V266.387H262.03M263.837 274H255.798V266.387M255.798 266.387H260.495M255.798 266.387V256.452M255.798 256.452H263.837M255.798 256.452V250.645M263.837 256.452V263.484V250.645M263.837 256.452V250.645M255.798 250.645H260.224M255.798 250.645V246.452H263.837V248.064M263.837 250.645H261.714M255.798 223.097H263.882L263.837 242.71" stroke="#1F27C0"/>
<path d="M287.682 274H282.263C282.263 273.871 282.218 241.484 282.263 241.484C282.299 241.484 287.848 241.484 290.618 241.484V239.097M282.263 234.129H290.618H282.218V224.064H290.708L290.627 231.097M290.627 231.097L290.618 231.871M290.627 231.097H293.102V232.258" stroke="#1F27C0"/>
<path d="M296.895 242H293.147V234.709" stroke="#1F27C0"/>
<path d="M266.592 272.516V274H274.811V268.903H266.592M266.592 268.903V270.58V265.677V268.903ZM266.592 262.839C266.664 262.839 272.102 262.839 274.811 262.839V256.58M274.811 256.58H266.592M274.811 256.58V242.322M266.592 256.58V260.774V250.58V256.58ZM274.811 242.322H266.592M274.811 242.322V232.451H266.592M266.592 242.322V247.935V238.645V242.322ZM266.592 232.451V235.935V230.645V232.451ZM266.592 223.161V228.064" stroke="#1F27C0"/>
<path d="M151.203 245.871V264.129H169.267V245.871H171.842V252.645H178.074C178.797 260.387 187.061 263.742 189.139 252.645H195.326V245.871H197.9V253.936H215.965V245.871" stroke="#1F27C0"/>
<path d="M216.146 232.903V242.194" stroke="#1F27C0"/>
<path d="M236.74 274H221.61V264.581M221.61 264.581H229.965M221.61 264.581V239.484M221.61 239.484H230.643M221.61 239.484V230.839" stroke="#1F27C0"/>
<path d="M221.565 226.452V217.935H225.901M225.901 217.935H230.914M225.901 217.935V201.032H216.146H238.004" stroke="#1F27C0"/>
<path d="M238.004 183.162H222.739V142.903H238.004V135.291M238.004 135.291H234.798M238.004 135.291V125.226L229.333 124.774" stroke="#1F27C0"/>
<path d="M222.739 142.839L223.101 124.129L225.675 124.322" stroke="#1F27C0"/>
<path d="M231.275 135.161C231.275 137.635 231.275 142.632 231.275 142.839V129.032M231.275 135.161C231.968 135.161 233.325 135.161 233.217 135.161C233.108 135.161 231.877 135.161 231.275 135.161ZM231.275 135.161V129.032M231.275 129.032V128.516M231.275 129.032H226.985M222.83 142.839L223.01 129.032H224.23" stroke="#1F27C0"/>
<path d="M151.925 120.387C151.925 120.026 152.196 112.28 152.332 108.452L155.493 108.71M160.054 120.968L160.506 109.032L157.751 108.71" stroke="#1F27C0"/>
<path d="M169.358 121.742L169.367 121.548M169.367 121.548L169.945 109.419L164.254 109.097M169.367 121.548L192.074 123.035M192.074 123.035L197.945 123.419M192.074 123.035L192.571 115.161L195.868 115.355M197.945 123.419L198.578 110.581L203.003 110.839M197.945 123.419L207.294 124.129M207.294 124.129L207.836 111.097H205.623H207.791M207.294 124.129L207.791 111.097M207.791 111.097H209.958M216.1 124.516L216.462 111.484H213.165" stroke="#1F27C0"/>
<path d="M195.958 115.677C195.958 115.626 196.079 112.172 196.139 110.452" stroke="#1F27C0"/>
<path d="M151.429 101.097C151.537 101.148 154.093 101.161 155.358 101.161" stroke="#1F27C0"/>
<path d="M157.751 101.419L160.732 101.529M160.732 101.529L164.751 101.677M160.732 101.529L161.048 88.9678L171.119 89.6129L170.577 102.065L167.145 101.871L173.603 102.387" stroke="#1F27C0"/>
<path d="M176.042 102.516L189.771 103.191M189.771 103.191L193.113 103.355M189.771 103.191L189.997 97.4194L199.617 97.9356M199.617 97.9356L199.933 91.4194L190.268 90.9033L189.997 97.2259L199.617 97.9356ZM199.617 97.9356L199.346 103.807M199.346 103.807L195.326 103.548M199.346 103.807L202.733 104L202.959 97.9356H201.604" stroke="#1F27C0"/>
<path d="M205.216 104.065C205.289 104.065 207.264 104.194 208.242 104.258L208.784 91.9355L217.636 92.5162L217.184 104.774L210.952 104.452L225.494 105.355" stroke="#1F27C0"/>
<path d="M229.694 105.871C244.734 107.605 254.939 101.687 261.85 93.7865M261.85 93.7865L256.475 99.2257L261.85 115.806M261.85 93.7865L270.069 107.677M261.85 93.7865C263.655 91.7228 265.235 89.5237 266.619 87.2902M274.676 68.3225C274.494 68.9588 274.291 69.6497 274.064 70.387M274.064 70.387C272.666 74.9331 270.366 81.2377 266.619 87.2902M274.064 70.387L286.237 77.5483M266.619 87.2902L275.85 99.9999M287.592 72.3225L287.394 72.2332M287.394 72.2332L279.869 68.8386M287.394 72.2332L288.541 67.0967M279.869 68.8386L279.508 69.8709L280.321 66.6451L279.869 68.8386ZM288.541 67.0967L280.998 64.387L281.586 59.4838M288.541 67.0967L289.986 54.5161L282.218 53.3548L282.489 50.5806" stroke="#1F27C0"/>
<path d="M282.76 45.0321L283.031 38.1934L294.186 39.1611V41.1611L304.844 41.8063" stroke="#1F27C0"/>
<path d="M307.418 45.871L307.147 55.4839L310.264 55.613L310.489 42.1291L307.418 41.9355V43.613" stroke="#1F27C0"/>
<path d="M317.806 42.645L310.535 42.1934L310.264 55.4837L326.928 56.4514L327.164 49.0321M327.164 49.0321L327.245 46.5159M327.164 49.0321L329.819 49.1611L329.954 43.5482L320.244 42.903" stroke="#1F27C0"/>
<path d="M331.896 56.6451L332.122 43.5483L335.78 43.8709L335.644 56.6451" stroke="#1F27C0"/>
<path d="M335.915 169.807H343.367M343.367 169.807H344.767M343.367 169.807V168.387M343.367 169.807H335.71V163.419H343.277M343.277 163.419H344.541M343.277 163.419V166.194V166.581" stroke="#1F27C0"/>
<path d="M348.516 177.226V169.613H350.774" stroke="#1F27C0"/>
<path d="M352.4 167.548V169.613H361.568V162.709L352.4 162.903V165.484" stroke="#1F27C0"/>
<path d="M352.309 157.226C352.309 157.072 352.309 154.668 352.309 152.581M352.309 152.581C352.309 151.863 352.309 151.184 352.309 150.645M352.309 152.581L362.29 152.516L362.155 134.258H352.038M352.038 134.258L352.174 146.452L351.812 123.806L352.038 134.258ZM351.812 119.29C351.812 118.516 351.812 113.204 351.812 110.645H361.793V102.258L351.722 102.645M351.722 102.645V106.322L351.587 100.322L351.722 102.645ZM351.406 96.387L351.18 83.5483M351.18 83.5483H353.348M351.18 83.5483C351.18 83.3934 351.18 80.8601 351.18 79.6128" stroke="#1F27C0"/>
<path d="M355.335 83.613C355.408 83.613 359.581 83.613 361.658 83.613L361.568 69.2259H351.045V75.742L350.774 58.9033" stroke="#1F27C0"/>
<path d="M350.729 55.5483V53.4838M350.729 53.4838L352.626 53.6128M350.729 53.4838L350.668 48.387M350.668 48.387L350.639 45.8709M350.668 48.387H361.568V37.6128H353.89" stroke="#1F27C0"/>
<path d="M355.2 53.7417H361.568" stroke="#1F27C0"/>
<path d="M350.503 41.7417V37.5482M350.503 37.5482H352.084M350.503 37.5482L350.955 22.7095M350.503 37.5482L348.019 37.3546" stroke="#1F27C0"/>
<path d="M345.761 36.9678L343.051 36.7985M343.051 36.7985L338.535 36.5161M343.051 36.7985L343.503 22.1936L335.238 21.4839L334.967 36.0645L336.006 36.1936L332.167 35.8065" stroke="#1F27C0"/>
<path d="M325.935 35.355L327.583 35.484M327.583 35.484L329.232 35.613M327.583 35.484L328.102 21.0969L316.722 20.3872L316.54 28.6453M316.54 28.6453L316.406 34.7743M316.54 28.6453C316.538 28.7485 316.45 32.8604 316.406 34.9034L313.38 34.7743H316.406M316.54 28.6453L313.741 28.5163M316.406 34.7743L323.36 35.1614M310.986 34.5163L311.122 28.2582M311.122 28.2582L312.612 28.3872M311.122 28.2582L311.347 20.0001L301.637 19.355L301.276 33.8711L308.457 34.1937L299.379 33.7421" stroke="#1F27C0"/>
<path d="M296.941 33.6773L294.141 33.4509M294.141 33.4509L292.154 33.2902M294.141 33.4509C294.105 33.3224 294.457 23.6989 294.638 18.9031L289.76 18.5806L289.218 33.2902L281.179 32.516" stroke="#1F27C0"/>
<path d="M278.153 18L277.521 32" stroke="#1F27C0"/>
<path d="M270.476 53.1611C270.476 52.6966 270.536 51.7202 270.566 51.2902L276.663 51.9999L277.386 36.3224L277.024 41.0321L272.869 40.645L273.14 31.6773H274.134C273.261 31.6343 271.515 31.5095 271.515 31.3547C271.515 31.2957 271.545 30.431 271.589 29.2257M271.589 29.2257C271.66 27.2649 271.766 24.4031 271.831 22.645L271.589 29.2257ZM266.231 28.5805C266.447 28.6321 267.977 28.7741 268.715 28.8386M265.734 39.6773L270.205 40.1289" stroke="#1F27C0"/>
<path d="M343.412 51.4839C343.557 51.4839 345.309 51.4839 346.167 51.4839L345.987 62.3226M345.987 62.3226H335.825M345.987 62.3226V63.9355" stroke="#1F27C0"/>
<path d="M345.896 68.1934V69.7417M345.896 69.7417V75.6127M345.896 69.7417H336.006" stroke="#1F27C0"/>
<path d="M346.032 79.9355L346.122 86.5162M346.122 86.5162L346.258 96.3872M346.122 86.5162H336.006" stroke="#1F27C0"/>
<path d="M346.484 100.903V110.839M346.484 110.839V113.678M346.484 110.839L336.413 111.161V104.581H343.774" stroke="#1F27C0"/>
<path d="M346.755 117.419V122M346.755 122V123.097M346.755 122H336.503V128.71L346.935 128.323V130.129" stroke="#1F27C0"/>
<path d="M336.954 151.935H347.251V142.516" stroke="#1F27C0"/>
<path d="M347.025 133.355V134.194M347.025 134.194V138.258M347.025 134.194H336.729" stroke="#1F27C0"/>
<path d="M352.4 162.968H347.025V159.291V163.161L352.4 162.968ZM352.4 162.968V160.452" stroke="#1F27C0"/>
<path d="M4.01953 166.064C4.1606 166.064 5.60094 166.064 7.22604 166.064M7.22604 166.064C8.51441 166.064 9.91887 166.064 10.8842 166.064H7.22604ZM7.22604 166.064L7.00023 177.677M13.6842 166.064H15.8972M15.8972 166.064V169.226M15.8972 166.064H26.5103V177.677H15.7165V173.097" stroke="#1F27C0"/>
</g>
<defs>
<clipPath id="clip0_242_85">
<rect width="365" height="388" fill="white"/>
</clipPath>
</defs>
</svg>
