<svg width="75" height="75" viewBox="0 0 75 75" fill="none" xmlns="http://www.w3.org/2000/svg">
<path d="M37.5 40.625C42.6777 40.625 46.875 36.4277 46.875 31.25C46.875 26.0723 42.6777 21.875 37.5 21.875C32.3223 21.875 28.125 26.0723 28.125 31.25C28.125 36.4277 32.3223 40.625 37.5 40.625Z" stroke="#2932D9" stroke-linecap="round"/>
<path d="M37.5 65.625C53.033 65.625 65.625 53.033 65.625 37.5C65.625 21.967 53.033 9.375 37.5 9.375C21.967 9.375 9.375 21.967 9.375 37.5C9.375 53.033 21.967 65.625 37.5 65.625Z" stroke="#2932D9"/>
<path d="M56.25 58.4559C55.1441 55.1334 52.7069 52.1978 49.3169 50.1037C45.9269 48.01 41.7731 46.875 37.5 46.875C33.2269 46.875 29.0732 48.01 25.6831 50.1037C22.293 52.1978 19.856 55.1334 18.75 58.4559" stroke="#2932D9" stroke-linecap="round"/>
</svg>
