<svg width="59" height="33" viewBox="0 0 59 33" fill="none" xmlns="http://www.w3.org/2000/svg">
<path d="M15.884 1.64509e-05V3.82802C18.876 3.88668 21.3546 4.37068 23.32 5.28002C25.3146 6.18935 26.796 7.49468 27.764 9.19602C28.732 10.8974 29.216 12.9654 29.216 15.4C29.216 17.16 28.952 18.7734 28.424 20.24C27.896 21.6774 27.0746 22.9387 25.96 24.024C24.8453 25.08 23.452 25.916 21.78 26.532C20.108 27.1187 18.1426 27.4414 15.884 27.5V32.296H13.332V27.5C11.044 27.4414 9.06397 27.1187 7.39197 26.532C5.71997 25.916 4.32664 25.08 3.21197 24.024C2.12664 22.968 1.31997 21.7214 0.791969 20.284C0.263969 18.8467 -3.11136e-05 17.2627 -3.11136e-05 15.532C-3.11136e-05 13.8014 0.263969 12.232 0.791969 10.824C1.31997 9.38668 2.12664 8.16935 3.21197 7.17202C4.2973 6.14535 5.67597 5.35335 7.34797 4.79602C9.0493 4.20935 11.044 3.88668 13.332 3.82802V1.64509e-05H15.884ZM13.332 6.07202C10.9266 6.10135 8.9173 6.48268 7.30397 7.21602C5.71997 7.94935 4.53197 9.00535 3.73997 10.384C2.9773 11.7627 2.59597 13.464 2.59597 15.488C2.59597 17.6294 3.00664 19.4187 3.82797 20.856C4.6493 22.2934 5.85197 23.3787 7.43597 24.112C9.0493 24.8454 11.0146 25.2414 13.332 25.3V6.07202ZM15.884 25.3C18.2306 25.2414 20.196 24.8307 21.78 24.068C23.3933 23.3054 24.596 22.1907 25.388 20.724C26.2093 19.2574 26.62 17.468 26.62 15.356C26.62 13.3027 26.2386 11.6014 25.476 10.252C24.7426 8.90268 23.584 7.87602 22 7.17202C20.416 6.46802 18.3773 6.10135 15.884 6.07202V25.3ZM58.9393 31.856H56.3873V16.544H38.4793V31.856H35.9273V0.440016H38.4793V14.256H56.3873V0.440016H58.9393V31.856Z" fill="white"/>
</svg>
